# xmcd
# 
# Track frame offsets:
#     150
#     9888
#     19593
#     29707
#     40171
#     52426
#     64226
#     71889
#     80351
#     91263
#     101482
#     110217
#     126406
#     138982
# 
# Disc length: 2094
# 
# Revision: 1
# Processed by: cddbd v1.5.2PL0 Copyright (c) Steve Scherf et al.
# Submitted via: BonkEnc v1.0.8
# 
DISCID=c8082c0e
DTITLE=Johnny Cash - White Collection Disc 2
DYEAR=2007
DGENRE=Country
TTITLE0=Rock Island
TTITLE1=Born To Lose
TTITLE2=The Ways Of A Woman In Love
TTITLE3=Cold Cold Heart
TTITLE4=I Walk The Line
TTITLE5=Thanks A Lot
TTITLE6=Hey Good Lookin
TTITLE7=I Forgot To Remember To Forget
TTITLE8=I Love You Because
TTITLE9=There You Go
TTITLE10=Two Timin' Woman
TTITLE11=City Of New Orleans
TTITLE12=Jackson
TTITLE13=Orange Blossom Special
EXTD=
EXTT0=
EXTT1=
EXTT2=
EXTT3=
EXTT4=
EXTT5=
EXTT6=
EXTT7=
EXTT8=
EXTT9=
EXTT10=
EXTT11=
EXTT12=
EXTT13=
PLAYORDER=
